<svg width="144" height="158" viewBox="0 0 144 158" fill="none" xmlns="http://www.w3.org/2000/svg">
<path d="M69.6 155.13C65.7758 153.055 65.0337 151.558 65.0337 145.915C65.0337 140.932 66.0068 138.388 68.7698 136.148C74.3717 131.606 71.0238 130.249 64.1795 134.288C56.6377 138.737 56.7314 138.754 56.7314 132.991C56.7314 129.03 58.0674 127.384 64.2035 123.788C72.426 118.97 74.6135 114.624 66.7767 118.676C60.3533 121.998 60.0523 121.927 60.0523 117.092C60.0523 113.939 61.6576 112.156 66.9093 109.477C73.5143 106.107 74.033 106.08 81.0233 108.75C86.954 111.015 88.2804 112.291 88.2804 115.729C88.2804 120.029 87.1686 120.2 79.5629 117.069C77.9647 116.411 76.6571 116.601 76.6571 117.49C76.6571 118.379 80.3931 120.659 84.9595 122.557C92.3279 125.619 93.2619 126.571 93.2619 131.022V136.036L85.7898 132.833C80.1778 130.428 78.3176 130.169 78.3176 131.795C78.3176 132.986 80.0973 134.771 82.2726 135.762C85.1414 137.07 86.4604 139.309 87.0756 143.916C87.7943 149.299 87.2545 150.837 83.5358 153.996C78.4374 158.328 75.8778 158.536 69.5998 155.13L69.6 155.13ZM9.82301 125.241C6.04561 123.192 5.25671 121.645 5.25671 116.288C5.25671 110.951 6.15577 109.172 10.3696 106.171C14.6456 103.126 16.1532 102.836 19.5803 104.397C29.1533 108.759 29.392 105.245 19.8915 99.8174C13.4074 96.1133 13.1636 95.7161 16.0705 93.5906C20.2978 90.4995 23.4579 90.7498 29.3335 94.6412C36.0764 99.1068 40.7035 98.9066 34.675 94.41C31.0154 91.6804 30.453 90.4818 31.9725 88.651C34.656 85.4175 36.8121 85.7388 43.6605 90.3925C48.5102 93.6879 49.8119 95.7842 50.6203 101.6C51.3886 107.129 50.9916 109.227 48.8742 110.831C44.8331 113.891 43.4475 113.386 43.4475 108.853C43.4475 106.624 42.601 104.277 41.5664 103.637C40.2026 102.794 39.9986 104.982 40.8245 111.593C41.8822 120.058 41.6714 120.902 37.8779 123.388C34.2181 125.786 33.6894 125.798 32.8081 123.501C32.2669 122.091 31.8242 118.756 31.8242 116.091C31.8242 113.172 30.9482 111.246 29.621 111.246C28.1406 111.246 27.6469 112.806 28.1161 116.003C28.6753 119.813 27.8231 121.467 23.8361 124.306C18.0127 128.452 15.9919 128.587 9.82307 125.24L9.82301 125.241ZM111.113 118.527C107.055 116.39 106.532 115.157 106.416 107.457C106.292 99.2707 106.188 99.0676 104.528 103.774C102.308 110.068 102.538 109.855 99.3122 108.617C97.2585 107.829 96.5838 105.404 96.5838 98.8123C96.5838 90.7604 97.0507 89.6983 102.375 85.6373C107.211 81.9488 108.744 81.5287 111.664 83.0914L115.161 84.963L111.401 88.9657C105.785 94.9435 108.464 95.3948 115.652 89.682C122.701 84.0803 124.502 83.7024 128.882 86.9052C131.736 88.9917 131.549 89.4197 125.895 93.7318C119.27 98.7852 119.176 102.878 125.784 98.5475C129.61 96.041 130.375 96.0603 136.49 98.8181C142.48 101.519 143.077 102.357 143.077 108.065C143.077 113.211 142.134 115.013 137.843 118.069L132.609 121.796L126.654 118.597C123.379 116.838 120.46 113.904 120.168 112.077C118.913 104.244 117.43 104.359 116.585 112.354L115.679 120.933L111.113 118.528L111.113 118.527ZM55.782 107.381C53.8506 102.348 55.8003 92.1973 58.8078 91.6283C60.818 91.2474 61.7136 92.1388 61.7136 94.5203C61.7136 98.4391 62.3195 98.6442 66.8042 96.2441C69.5563 94.7712 70.016 95.084 70.016 98.4291C70.016 103.438 57.33 111.416 55.782 107.382V107.381ZM83.715 104.615C79.8336 102.872 76.658 101.097 76.658 100.67C76.658 100.244 76.1615 98.6009 75.5547 97.0196C74.6289 94.6071 75.1451 94.3187 78.7627 95.2266C82.1643 96.0804 83.2966 95.6073 84.1291 92.9844C85.2816 89.3533 86.3222 88.9951 89.6281 91.0916C91.0475 91.9918 91.6253 95.1365 91.2886 100.129L90.7721 107.785L83.7151 104.615H83.715ZM63.374 88.1114C63.374 84.7002 62.3795 82.9262 60.053 82.1878C55.7885 80.8343 55.8274 78.6376 60.1569 76.3205C62.5637 75.0324 63.4329 73.1641 63.0809 70.0353C62.7109 66.7462 63.226 65.7657 65.0526 66.2821C68.828 67.3497 73.8484 67.0969 77.0726 65.677C79.419 64.6438 79.9784 65.2206 79.9784 68.6732C79.9784 71.626 81.3584 73.6721 84.4384 75.2859L88.8984 77.6227L85.2687 79.8895C82.75 81.4624 81.6389 83.8022 81.6389 87.533C81.6389 92.6655 81.4504 92.8238 77.4877 91.0182C74.3701 89.5977 72.2834 89.6066 69.1072 91.0538C63.388 93.6596 63.3737 93.6523 63.3737 88.1113L63.374 88.1114ZM43.863 85.1013C40.8949 83.6241 38.4664 81.8419 38.4664 81.1408C38.4664 78.4575 49.7184 71.3566 52.3634 72.3713C55.7436 73.6684 55.7976 75.3668 52.5445 78.0667C50.3134 79.9183 50.4139 80.4415 53.4025 82.5348C57.1488 85.1588 56.4265 88.0581 52.0676 87.8933C50.5233 87.8349 46.8313 86.5785 43.8632 85.1013H43.863ZM90.007 84.7545C87.9185 83.4334 87.9825 82.7786 90.4684 80.0317C93.22 76.9912 93.1943 76.7351 89.9178 74.5338C86.6239 72.3208 86.6079 72.1469 89.533 70.3468C91.9887 68.8355 93.956 69.2784 99.604 72.6139L106.623 76.7593L100.358 81.503C93.2817 86.8601 93.3177 86.8488 90.0066 84.7545H90.007ZM31.27 74.5045C28.3699 72.8183 28.403 72.545 31.9684 68.7499C37.4811 62.8819 35.0081 62.3902 28.3991 68.0403C22.0555 73.4635 18.9461 74.1017 14.5451 70.8839C11.7941 68.8723 12.017 68.3767 17.5798 64.1337C24.1887 59.0928 24.1783 54.8549 17.5676 59.1864C13.7422 61.6929 12.9768 61.6736 6.86065 58.9157C0.871049 56.2147 0.274048 55.3767 0.274048 49.6689C0.274048 44.5574 1.22095 42.718 5.37505 39.76C10.3793 36.1967 10.5998 36.1835 16.998 39.0689C22.3254 41.4713 23.5203 42.8585 23.5203 46.6413C23.5203 49.1885 24.2676 51.7343 25.1808 52.2988C26.1915 52.9234 26.8413 50.4711 26.8413 46.0316C26.8413 37.2227 27.6529 36.2086 32.8186 38.5624C36.2932 40.1455 36.8041 41.5023 36.8041 49.1464C36.8041 53.9688 37.5514 58.3763 38.4645 58.9407C39.4527 59.5515 40.125 57.5742 40.125 54.0573C40.125 47.6034 40.4646 47.3238 45.2156 49.8665C47.6407 51.1643 48.4274 53.3672 48.4274 58.8596C48.4274 65.3294 47.7125 66.7001 41.9616 71.2546C34.6319 77.0598 35.3096 76.8539 31.2686 74.5044L31.27 74.5045ZM99.663 67.2314C94.3714 63.7628 93.5331 62.2944 92.9971 55.5544C92.5217 49.5769 93.0175 47.5063 95.2046 46.3358C99.2778 44.1559 99.5275 44.3132 100.738 49.8222C102.534 58.0024 104.595 53.8686 102.994 45.2967C101.659 38.1514 101.871 37.1373 105.231 34.6027C109.682 31.2458 111.528 32.0413 111.528 37.3165C111.528 42.4805 113.138 46.4869 115.215 46.4869C116.134 46.4869 116.554 44.2278 116.149 41.4667C115.522 37.1924 116.243 35.9328 121.006 32.9893C125.917 29.9543 127.217 29.7879 131.657 31.6269C136.629 33.6863 139.756 38.761 139.756 44.7709C139.756 46.4971 137.226 49.3123 133.924 51.2602C129.097 54.1082 127.381 54.3759 123.955 52.815C118.985 50.5508 116.03 52.7252 120.442 55.3995C122.148 56.434 125.04 58.4433 126.868 59.8647C130.159 62.4237 130.151 62.4756 126.066 65.1521C122.156 67.7137 121.629 67.6436 115.992 63.8132C112.72 61.59 108.696 59.7837 107.049 59.7991C104.95 59.8187 105.728 60.8975 109.653 63.4104C114.871 66.7505 115.046 67.1431 112.242 69.1941C108.233 72.1252 106.784 71.8991 99.6635 67.2315L99.663 67.2314ZM54.53 66.828C52.8949 64.0639 51.6067 51.758 52.878 51.047C53.6274 50.6275 57.4162 51.6999 61.2976 53.4301C66.1668 55.6006 68.3546 57.5958 68.3546 59.8656C68.3546 62.5455 67.5851 62.9622 64.2034 62.1135C60.7586 61.2489 60.0522 61.6673 60.0522 64.5726C60.0522 67.8941 56.1126 69.5033 54.5301 66.8282L54.53 66.828ZM82.119 63.0919C81.1163 59.2576 80.8573 59.1832 76.5473 61.4898C73.8065 62.9566 73.3374 62.6523 73.3483 59.4142C73.3574 56.7209 75.3268 54.497 80.1344 51.7511C83.8597 49.6234 87.1486 48.1289 87.443 48.4302C88.6508 49.6659 88.8396 62.5032 87.6775 64.3832C85.7844 67.4463 83.0943 66.8212 82.119 63.0916V63.0919ZM61.712 48.4739C58.0819 46.7031 55.7012 44.2398 55.3697 41.9117C54.7802 37.7706 56.0983 37.3951 62.5769 39.8582C65.7748 41.0741 66.8063 41.0139 66.3477 39.6382C66.0005 38.5967 62.387 36.5192 58.3177 35.0216C51.8522 32.6422 50.8526 31.614 50.3935 26.8709L49.8681 21.4431L55.9929 24.0022C59.3615 25.4097 62.7736 26.5613 63.5754 26.5613C66.5694 26.5613 64.8855 23.7062 60.7912 21.8407C57.0129 20.1192 56.6046 19.0794 57.0551 12.3259C57.4676 6.14256 58.3902 4.24278 62.0562 2.02688C66.2056 -0.480716 66.9854 -0.482734 72.1942 2.00104C76.7458 4.17154 78.0357 5.91744 78.8655 11.0309C79.7643 16.5699 79.3231 17.8266 75.3697 20.9864C69.1225 25.9795 71.8675 27.7551 79.1715 23.4456C82.4591 21.5059 85.4799 19.9189 85.8843 19.9189C86.2887 19.9189 86.6196 22.129 86.6196 24.8303C86.6196 28.9218 85.3254 30.5 78.8675 34.2846C71.6025 38.5422 70.928 42.1386 78.1159 38.2917C82.7972 35.7864 83.2985 36.0137 83.2985 40.641C83.2985 43.766 81.7136 45.567 76.7227 48.1132C68.9295 52.089 69.115 52.0845 61.7127 48.4733L61.712 48.4739Z" fill="white"/>
</svg>
