<svg width="159" height="148" viewBox="0 0 159 148" fill="none" xmlns="http://www.w3.org/2000/svg">
<path d="M72.27 142.87C69.1812 137.134 69.1822 137.122 73.1575 132.891L77.1376 128.654L80.2513 133.572C83.4972 138.698 82.7588 142.474 77.6875 146.683C75.8172 148.235 74.7576 147.489 72.2699 142.87L72.27 142.87ZM105.521 135.866C98.9536 128.259 97.4704 125.433 97.8966 121.337C98.6634 113.968 99.2785 113.587 105.572 116.588C110.599 118.985 111.469 120.38 113.047 128.57C114.029 133.668 115.191 139.52 115.629 141.575C116.89 147.489 114.285 146.018 105.521 135.867L105.521 135.866ZM36.659 139.09C36.659 138.301 38.3899 132.524 40.5055 126.252C44.0109 115.86 44.8943 114.661 50.4683 112.732L56.5847 110.615L56.5839 117.585C56.5832 123.846 55.7812 125.24 48.6966 131.297C39.3539 139.283 36.6586 141.028 36.6586 139.09L36.659 139.09ZM82.9 129.319L76.8358 125.151L69.806 128.738C64.1192 131.639 62.5069 131.899 61.3664 130.1C60.591 128.876 59.9451 127.304 59.9312 126.606C59.9081 125.453 68.719 119.425 72.0962 118.284C72.8647 118.024 73.7424 113.22 74.0465 107.609C74.3506 101.997 75.5014 95.7207 76.6038 93.6607C78.5651 89.9959 78.6602 89.9844 81.0293 93.1206C82.8466 95.5263 83.2083 99.0673 82.4796 107.319L81.5088 118.312L88.1423 122.701C95.2662 127.416 95.8772 128.599 92.7832 131.693C90.2063 134.27 90.0501 134.233 82.9 129.318V129.319ZM89.257 119.312C88.657 118.712 88.6235 114.33 89.1826 109.573C89.8448 103.939 89.5497 100.522 88.3363 99.7724C86.0286 98.3462 85.8526 88.8544 88.1339 88.8544C90.7062 88.8544 96.4363 95.1982 96.4363 98.0461C96.4363 99.4902 99.7083 101.998 103.982 103.83C110.832 106.767 111.356 107.385 109.666 110.542C108.403 112.901 106.912 113.652 105.027 112.876C99.2991 110.519 97.2697 111.244 96.7411 115.837C96.2396 120.195 92.0742 122.13 89.257 119.313V119.312ZM59.287 116.204C58.7141 114.711 58.2454 112.075 58.2454 110.346C58.2454 107.651 57.6323 107.435 53.9549 108.833C48.925 110.745 46.6221 109.737 46.6221 105.624C46.6221 103.603 48.7548 102.025 53.3404 100.651C57.5461 99.3906 60.7196 97.1873 61.8259 94.7593C62.7979 92.6261 65.3787 90.0672 67.5612 89.0728C71.1721 87.4276 71.5293 87.6405 71.5293 91.4388C71.5293 93.7345 70.3414 97.4258 68.8895 99.6416C67.204 102.214 66.4537 106.244 66.8139 110.792C67.3057 116.999 66.926 117.977 63.8533 118.415C61.7743 118.712 59.9013 117.805 59.287 116.204V116.204ZM113.698 110.567L114.783 102.392L105.722 96.8685C98.0951 92.2189 93.116 86.6745 93.116 82.8325C93.116 81.6197 103.707 84.0072 104.739 85.4527C105.196 86.0922 108.454 88.5517 111.979 90.9183L118.389 95.2212L125.958 91.9769C131.962 89.4029 133.806 89.1741 134.882 90.8691C137.41 94.8531 136.303 96.647 129.725 99.2309C123.558 101.653 123.095 102.32 122.039 110.276C121.028 117.901 120.503 118.743 116.765 118.743C112.752 118.743 112.65 118.47 113.698 110.568L113.698 110.567ZM128.213 112.766C125.002 105.72 125.8 103.798 131.936 103.798C136.617 103.798 137.891 104.632 139.631 108.833C142.048 114.666 142.066 114.636 135.27 115.927C130.89 116.758 129.812 116.276 128.213 112.766V112.766ZM34.306 105.611C35.3837 97.4869 35.3648 97.4454 28.5515 92.9368C21.0802 87.9925 20.5423 86.9141 24.0816 83.9767C25.9549 82.422 27.8482 82.8975 33.1762 86.261L39.905 90.5087L47.4151 86.86C51.5457 84.8532 54.9252 82.613 54.9252 81.8817C54.9252 81.1504 57.5404 80.5521 60.7369 80.5521C63.9334 80.5521 66.5319 81.1125 66.5116 81.7975C66.4204 84.8748 60.0178 90.1709 52.0196 93.7855C44.7913 97.0519 43.2982 98.4564 43.2794 102.007C43.2355 110.309 41.4611 113.762 37.2396 113.762C33.392 113.762 33.2699 113.423 34.3061 105.612L34.306 105.611ZM20.47 109.09C14.5421 108.518 14.1487 107.645 17.0005 101.386C18.3496 98.4251 20.2171 97.1643 23.2273 97.1821C30.4109 97.2246 31.7092 99.0192 28.6144 104.629C26.305 108.816 25.0056 109.527 20.47 109.09V109.09ZM116.425 85.3819C113.263 82.7253 108.736 80.5517 106.364 80.5517C103.992 80.5517 100.602 79.4451 98.8291 78.0925C96.0393 75.964 95.9408 75.4093 98.0966 73.9667C99.4665 73.0501 103.203 72.2837 106.399 72.2637C109.595 72.2437 114.452 70.7428 117.192 68.9283C123.308 64.8776 125.645 64.7631 127.058 68.4449C127.78 70.3268 126.869 72.2469 124.351 74.1457L120.556 77.0088L124.296 80.9903C127.855 84.7779 127.894 85.0994 125.105 87.5919C122.406 90.0045 121.718 89.8294 116.424 85.3819L116.425 85.3819ZM73.605 82.7528C70.9768 80.9195 69.8689 78.4761 69.8689 74.5131C69.8689 69.9661 70.8846 68.2619 75.1351 65.677C80.4847 62.4238 82.0131 62.6515 88.7841 67.7106C93.316 71.0969 91.2962 80.9946 85.5379 83.6186C80.1334 86.081 78.1726 85.9388 73.6049 82.7527L73.605 82.7528ZM127.903 81.2945C124.529 77.7032 124.295 76.8071 126.368 75.4272C133.856 70.4438 134.771 70.3658 145.094 73.8294C159.04 78.5086 161.345 80.0595 156.127 81.2545C132.95 86.5627 132.853 86.5628 127.903 81.2946L127.903 81.2945ZM33.839 81.1233C33.1618 79.3584 34.1596 77.2601 36.6257 75.2631L40.4674 72.1523L36.9064 68.3617C33.7391 64.9903 33.6075 64.2154 35.7162 61.3532C38.0128 58.2359 38.262 58.3041 43.6787 63.5318C47.4666 67.1875 50.8834 68.9283 54.2707 68.9283C57.0208 68.9283 60.6692 69.9508 62.3782 71.2005C65.3873 73.4008 65.3746 73.5321 61.9745 75.3517C60.0434 76.3852 55.9859 77.2474 52.9577 77.2677C49.9295 77.288 45.584 78.7658 43.3008 80.5517C38.193 84.5471 35.2219 84.7266 33.8392 81.1233H33.839ZM12.744 74.6402C6.4403 72.4381 0.982011 70.3361 0.616011 69.9691C-0.687289 68.6658 25.083 63.7381 28.135 64.7069C29.8425 65.2488 32.5013 67.0865 34.0435 68.7906C36.7026 71.7289 36.5935 72.0698 31.9306 75.3901C26.045 79.581 26.9935 79.6181 12.7446 74.6403L12.744 74.6402ZM94.775 67.989C94.775 64.3398 99.5382 60.165 108.07 56.336L118.022 51.87V43.7944C118.022 36.2874 118.314 35.7188 122.173 35.7188C126.072 35.7188 126.325 36.2481 126.337 44.4363C126.349 52.8653 126.57 53.2795 133.003 56.9533C138.759 60.2406 139.422 61.1922 137.913 64.0103C135.729 68.0921 135.804 68.0981 127.435 63.1935L120.483 59.1193L111.515 64.0237C103.474 68.4209 94.7748 70.4813 94.7748 67.9887L94.775 67.989ZM60.725 65.857C58.8928 65.2631 53.8664 62.3247 49.555 59.3272L41.7165 53.8773L35.1023 57.2516C27.0107 61.3796 27.2149 61.3784 25.0373 57.3103C23.4663 54.3748 24.1258 53.5756 30.7906 50.3376C38.1673 46.7537 38.3182 46.5205 38.3182 38.7086C38.3182 31.3127 38.6179 30.737 42.4694 30.737C46.3385 30.737 46.6206 31.2959 46.6206 38.9597C46.6206 46.9194 46.8728 47.3515 54.5079 52.4747C63.216 58.3178 66.5459 61.8088 66.5459 65.0946C66.5459 67.433 65.8619 67.5226 60.7239 65.8571L60.725 65.857ZM88.133 58.9071C88.133 57.0484 89.4406 53.5245 91.0388 51.076C92.7244 48.4937 93.9446 43.4629 93.9446 39.096C93.9446 32.5531 94.4336 31.4982 97.6807 31.0371C100.948 30.5732 101.417 31.24 101.417 36.3473C101.417 42.1608 101.441 42.1797 106.577 40.3894C110.65 38.9694 112.043 39.0749 113.193 40.8909C115.815 45.0304 114.785 47.0599 109.471 48.2271C106.594 48.8589 101.393 52.2807 97.9126 55.8312C90.8325 63.0543 88.1326 63.9035 88.1326 58.9072L88.133 58.9071ZM70.248 59.5147C69.0872 59.0476 67.017 56.4987 65.6475 53.8504C64.278 51.2021 60.184 47.5184 56.5498 45.6643C49.5719 42.1044 49.0825 41.3092 51.5091 37.4738C52.7455 35.5196 53.8275 35.443 57.3735 37.0587C63.0781 39.6579 62.7988 39.7833 64.0562 34.0584C64.794 30.6993 66.157 29.077 68.2413 29.077C72.5732 29.077 73.1984 30.8047 71.5352 38.179C70.4756 42.8773 70.7264 45.8465 72.4674 49.213C75.0061 54.1223 75.67 60.712 73.6039 60.495C72.9189 60.4229 71.4088 59.9818 70.248 59.5148L70.248 59.5147ZM78.7884 55.2295C78.092 53.1747 77.7439 47.0737 78.0148 41.6715C78.4919 32.158 78.3162 31.6892 72.4153 26.7275C68.0333 23.0427 66.6376 20.7891 67.443 18.6989C68.9578 14.7677 70.7477 15.0286 77.477 20.1612L83.2039 24.5293L90.6977 20.5763C97.1825 17.1556 98.4053 16.9587 99.7789 19.114C102.242 22.9784 101.912 23.49 93.9449 28.1588L86.4728 32.5378L86.42 42.8458C86.3526 56.0008 81.6409 63.6458 78.7886 55.2298L78.7884 55.2295ZM131.564 50.8581C129.713 49.685 129.763 48.6095 131.857 44.5608C134.073 40.2758 135.108 39.763 140.316 40.3709C147.145 41.1681 147.052 40.9752 143.717 47.4247C141.145 52.3979 136.199 53.7954 131.565 50.8581H131.564ZM20.9444 40.2851C19.6958 37.317 18.7978 34.8091 18.9489 34.7119C19.1 34.6147 21.6435 34.0748 24.601 33.5119C29.3378 32.6104 30.2773 33.0667 32.4883 37.3421C36.1572 44.437 35.6525 45.6816 29.1064 45.6816C24.0319 45.6816 22.8996 44.933 20.9443 40.285L20.9444 40.2851ZM103.713 32.7721C102.618 26.9346 102.96 26.3723 113.173 17.2091C119.001 11.9804 124.047 7.98058 124.387 8.32068C125.226 9.15959 117.969 31.0747 116.044 33.5147C115.2 34.5854 112.335 36.2191 109.679 37.1451C105.013 38.7716 104.811 38.6233 103.713 32.7724L103.713 32.7721ZM54.0614 32.6484C49.6615 29.9652 48.7965 28.1305 47.0044 17.6794C45.8811 11.1284 44.9619 4.95437 44.9619 3.95937C44.9619 2.17137 59.4249 17.3364 62.1409 21.9724C63.6735 24.5882 62.138 35.7224 60.2461 35.7124C59.6025 35.709 56.8194 34.3301 54.0614 32.6482V32.6484ZM80.8534 16.6814C77.3141 11.2798 77.4665 9.28516 81.7686 4.70636L85.3654 0.877655L88.4494 5.94885C91.4806 10.9332 91.4739 11.1035 88.0604 15.8974C86.1503 18.5799 84.3507 20.7747 84.0613 20.7747C83.7719 20.7747 82.3284 18.9329 80.8534 16.6819V16.6814Z" fill="white"/>
</svg>
