<svg width="155" height="174" viewBox="0 0 155 174" fill="none" xmlns="http://www.w3.org/2000/svg">
<path d="M70.6 170.96C65.9916 165.407 74.2076 157.191 79.7605 161.8C81.1327 162.938 82.0309 165.802 81.7564 168.163C81.3822 171.383 80.1832 172.582 76.964 172.956C74.6027 173.23 71.7389 172.332 70.6 170.96V170.96ZM68.1512 152.395C66.7181 148.66 66.6797 148.729 71.7095 146.093C75.7453 143.979 76.8061 144.014 80.8421 146.398C85.8919 149.381 86.0564 149.772 83.7733 153.361C82.516 155.338 81.5479 155.455 79.0839 153.929C77.1657 152.741 75.0835 152.572 73.6367 153.488C70.319 155.588 69.2986 155.385 68.1513 152.395L68.1512 152.395ZM82.3292 143.058C77.0437 139.711 76.6321 139.688 70.9072 142.418C66.1102 144.706 64.703 144.833 63.5906 143.079C61.2621 139.407 61.912 138.495 69.4731 134.822L76.7837 131.27L84.515 135.801C91.2652 139.757 91.9775 140.684 90.1278 143.11C88.9626 144.638 87.965 146.033 87.9109 146.209C87.8568 146.385 85.3451 144.967 82.3294 143.058H82.3292ZM84.9716 131.727L77.0622 126.76L68.7196 130.988C64.1312 133.313 59.6579 134.771 58.7788 134.227C55.1138 131.962 57.7586 128.609 67.1635 123.596L77.1464 118.276L87.1954 124.38C94.1017 128.576 96.9519 131.249 96.308 132.927C95.7927 134.269 95.3712 135.681 95.3712 136.063C95.3712 137.642 92.4521 136.425 84.9711 131.727L84.9716 131.727ZM143.068 134.873C139.225 132.722 139.414 125.673 143.371 123.555C147.434 121.381 154.567 126.568 153.029 130.577C151.497 134.569 146.43 136.754 143.068 134.872L143.068 134.873ZM3.41762 129.249C0.0830176 125.914 -0.0129836 122.832 3.13631 120.218C8.45121 115.807 16.6153 122.286 12.9924 128.039C10.4983 132 6.65402 132.485 3.41762 129.249V129.249ZM104.478 126.754C103.837 125.718 103.825 120.095 104.45 114.258L105.586 103.646L114.65 98.4602C119.636 95.6079 124.809 93.6943 126.146 94.2076C130.815 95.9992 128.517 99.6876 120.349 103.513L112.119 107.368L111.631 117.48C111.253 125.328 110.528 127.709 108.393 128.115C106.88 128.403 105.118 127.791 104.477 126.755L104.478 126.754ZM115.296 119.35V110.245L123.44 106.118C130.453 102.564 131.722 102.348 132.573 104.565C134.173 108.734 133.751 109.905 130.25 111.016C124.764 112.757 121.937 116.751 121.937 122.761C121.937 127.347 121.292 128.454 118.617 128.454C115.699 128.454 115.295 127.347 115.295 119.35L115.296 119.35ZM126.34 127.199C124.336 123.958 127.649 116.538 132.136 114.218C136.497 111.963 137.041 111.992 138.012 114.522C138.658 116.206 137.988 118.111 136.322 119.33C134.803 120.44 133.561 122.947 133.561 124.901C133.561 127.311 132.524 128.454 130.338 128.454C128.565 128.454 126.766 127.89 126.34 127.199V127.199ZM20.6496 121.18C20.6496 118.879 19.4985 116.352 18.0915 115.564C16.5398 114.696 15.9564 113.03 16.6087 111.331C17.9789 107.76 20.4788 107.832 25.3554 111.584C30.5373 115.57 29.9168 124.048 24.3857 124.834C21.3593 125.264 20.6496 124.57 20.6496 121.18L20.6496 121.18ZM32.2726 118.435C32.2726 112.546 31.5741 111.325 26.4832 108.321C21.522 105.394 20.9443 104.438 22.445 101.634C24.1627 98.4242 24.3288 98.4399 31.1402 102.454C37.8372 106.4 38.102 106.876 38.5822 115.84C39.0336 124.264 38.7617 125.133 35.6764 125.133C32.8075 125.133 32.2726 124.081 32.2726 118.436V118.435ZM42.7716 115.479L43.7807 105.824L35.5689 100.95C31.0524 98.2687 27.3423 95.1176 27.3242 93.9474C27.2581 89.6749 31.9585 90.2325 41.1102 95.583L50.4724 101.056L50.5051 113.095C50.5376 125.01 50.493 125.132 46.1502 125.132C41.7942 125.132 41.7698 125.063 42.7716 115.478L42.7716 115.479ZM90.0526 118.911C83.4988 113.68 82.23 111.748 82.1441 106.868C82.0879 103.672 81.5913 99.3751 81.0406 97.3202C79.6798 92.2424 81.8916 92.6216 90.0046 98.857C96.0718 103.52 96.9914 105.139 97.9555 112.856C98.5551 117.655 98.7786 122.383 98.4522 123.362C98.1258 124.341 94.346 122.338 90.0526 118.911V118.911ZM56.2086 115.898C56.8467 111.388 57.6944 106.577 58.0925 105.208C58.8465 102.613 73.4075 92.6537 74.6425 93.8887C75.0305 94.2767 74.7274 98.5197 73.969 103.318C72.566 112.193 71.8601 113.078 59.958 120.88L55.0489 124.097L56.209 115.898L56.2086 115.898ZM92.0496 91.1617L84.5775 87.229L92.6024 83.7646C97.0161 81.8592 101.666 80.3002 102.936 80.3002C105.799 80.3002 120.278 87.2343 120.278 88.6055C120.278 89.8938 105.289 95.2872 102.013 95.1777C100.644 95.1319 96.1602 93.3247 92.0506 91.1618L92.0496 91.1617ZM43.0656 89.6534L34.7632 85.7655L41.3082 82.9846C52.2502 78.3354 54.4562 78.2999 63.7842 82.6219L72.7676 86.784L64.8357 90.184C54.8638 94.4584 53.2417 94.419 43.0647 89.6534L43.0656 89.6534ZM115.502 78.3814C105.615 72.0953 105.041 71.3878 105.987 66.6554C106.541 63.8855 106.994 58.7238 106.994 55.1844C106.994 49.857 107.566 48.75 110.315 48.75C113.261 48.75 113.636 49.857 113.636 58.5398V68.3296L121.978 73.6822C129.16 78.2907 130.033 79.4112 128.259 81.7426C127.126 83.2319 126.16 84.5899 126.111 84.7605C126.063 84.9311 121.289 82.0602 115.501 78.3809L115.502 78.3814ZM29.0046 78.7377C27.449 75.8311 28.0368 75.0054 33.7284 72.1018C43.7764 66.9759 45.5564 64.4426 45.5564 55.2738C45.5564 48.1385 45.9912 47.09 48.9501 47.09C52.0929 47.09 52.3077 47.9543 51.8559 58.779L51.368 70.468L41.0741 76.2622C31.0767 81.8897 30.729 81.9609 29.004 78.7368L29.0046 78.7377ZM82.1056 78.2369C82.1637 66.3209 84.1409 62.0289 92.3486 56.0039C96.8365 52.7095 100.761 50.2903 101.07 50.6279C101.378 50.9655 100.895 55.7365 99.9949 61.2299C98.4423 70.7109 97.946 71.4919 90.2232 76.6019C82.2643 81.8685 82.0875 81.9041 82.1054 78.2369H82.1056ZM65.8206 74.0729C59.9202 68.6147 59.0016 66.7701 58.3787 59.1289C57.5346 48.7739 58.7983 48.3679 67.8208 56.0903C73.6441 61.0746 74.3893 62.6016 75.0834 70.9723C75.5478 76.5721 75.1965 80.3 74.2044 80.3C73.2955 80.3 69.5228 77.498 65.8206 74.0732V74.0729ZM124.015 70.9337C117.109 66.7701 116.958 66.4861 116.958 57.7147C116.958 49.26 117.194 48.7507 121.109 48.7507C124.922 48.7507 125.26 49.3595 125.26 56.2228C125.26 60.3325 125.82 63.7116 126.505 63.7319C129.946 63.8339 135.305 69.8515 134.296 72.4808C132.906 76.1023 132.481 76.0383 124.015 70.9338L124.015 70.9337ZM24.0046 68.7484C22.4084 65.7659 22.8973 65.0196 28.0593 62.558C33.276 60.0703 33.929 59.0484 33.929 53.3724C33.929 49.1056 34.7927 46.6545 36.5313 45.9873C41.135 44.2207 42.7513 47.8713 41.178 56.4823C39.8865 63.5515 38.9174 64.9141 32.769 68.3053C25.8234 72.1367 25.8187 72.1369 24.0046 68.7474V68.7484ZM132.265 62.7706C127.222 59.2383 126.945 48.7506 131.895 48.7506C134.236 48.7506 135.216 49.8576 135.216 52.5024C135.216 54.5659 136.767 57.2229 138.663 58.407C141.433 60.1366 141.719 61.0312 140.121 62.9576C137.616 65.975 136.812 65.9559 132.265 62.7705L132.265 62.7706ZM18.2246 59.1287C17.4774 57.1826 18.2414 55.4704 20.5377 53.9447C22.4236 52.6917 23.9666 50.2633 23.9666 48.5482C23.9666 46.5368 25.1455 45.4298 27.2876 45.4298C29.9713 45.4298 30.6086 46.5368 30.6086 51.1988C30.6086 55.9078 29.7085 57.4333 25.7096 59.5012C19.6059 62.6576 19.5793 62.6562 18.2247 59.1287H18.2246ZM68.4996 49.0767C60.5442 43.9004 59.3271 42.4756 60.7265 39.9771C62.2686 37.2239 63.0213 37.3784 71.3875 42.1652L80.3896 47.3157L88.8236 42.7254C95.9068 38.8702 97.501 38.5198 98.7774 40.5373C99.6133 41.8585 100.3 43.3131 100.303 43.7697C100.31 44.8556 81.0679 55.4197 79.2949 55.3037C78.5454 55.2544 73.6875 52.4524 68.4999 49.0769L68.4996 49.0767ZM143.657 53.0659C139.048 47.5131 147.264 39.2969 152.817 43.9055C154.189 45.0443 155.087 47.9081 154.813 50.2694C154.439 53.4886 153.24 54.6876 150.021 55.0618C147.659 55.3362 144.795 54.4381 143.657 53.0659ZM6.68663 49.9034C2.45283 46.8076 3.75642 39.7754 8.69392 39.0754C16.0382 38.0342 19.7429 44.4298 14.7107 49.4624C11.5397 52.6334 10.4987 52.6906 6.68663 49.9031V49.9034ZM71.7166 38.2994C64.9178 34.2899 64.8096 34.107 67.0966 30.4893C68.4704 28.3162 69.4161 28.4047 74.5887 31.1903C80.179 34.2009 80.8276 34.2262 86.2397 31.6453C91.6518 29.0645 92.061 29.0807 93.5856 31.9293C94.9268 34.4354 94.1213 35.5528 88.8283 38.5276C81.0018 42.9263 79.5292 42.9067 71.7163 38.2993L71.7166 38.2994ZM75.8059 27.9004C71.8788 25.1498 70.9925 21.4124 73.8487 19.6472C74.802 19.058 76.6223 19.4394 77.8938 20.4946C79.5775 21.892 81.1178 21.9251 83.563 20.6165C86.3096 19.1465 87.2402 19.4172 88.6785 22.1047C90.1748 24.9006 89.703 25.7691 85.5097 27.9375C79.5276 31.0309 80.2796 31.0338 75.806 27.9003L75.8059 27.9004ZM76.3853 11.2714C73.2143 8.10038 73.1571 7.05937 75.9446 3.24727C79.0404 -0.986527 86.0726 0.317167 86.7726 5.25457C87.8137 12.5989 81.4181 16.3036 76.3856 11.2714H76.3853Z" fill="white"/>
</svg>
