<svg width="207" height="254" viewBox="0 0 207 254" fill="none" xmlns="http://www.w3.org/2000/svg">
<path d="M141.563 188.351C116.37 157.959 103.373 134.365 103.373 134.365C103.373 134.365 90.3764 157.959 65.1829 188.351C39.9895 218.743 0 245.336 0 245.336C0 245.336 10.7971 253.134 103.173 253.134C195.149 253.134 206.346 245.336 206.346 245.336C206.346 245.336 166.756 218.743 141.563 188.351Z" fill="#269342"/>
<path d="M134.965 159.358C114.17 132.365 103.373 111.371 103.373 111.371C103.373 111.371 92.5758 132.365 71.7812 159.358C50.9866 186.351 17.7953 209.945 17.7953 209.945C17.7953 209.945 26.793 216.943 103.373 216.943C179.553 216.943 188.951 209.945 188.951 209.945C188.951 209.945 155.759 186.351 134.965 159.358Z" fill="#399E43"/>
<path d="M129.366 129.766C112.171 104.573 103.373 84.9778 103.373 84.9778C103.373 84.9778 94.5753 104.573 77.3798 129.766C60.1843 154.96 32.9914 177.154 32.9914 177.154C32.9914 177.154 40.3895 183.752 103.373 183.752C166.157 183.752 173.755 177.154 173.755 177.154C173.755 177.154 146.562 154.96 129.366 129.766Z" fill="#50A744"/>
<path d="M125.167 107.772C110.971 87.1772 103.573 71.1814 103.573 71.1814C103.573 71.1814 96.1749 87.1772 81.9786 107.772C67.7823 128.366 44.9883 146.362 44.9883 146.362C44.9883 146.362 51.1866 151.76 103.773 151.76C156.159 151.76 162.558 146.362 162.558 146.362C162.558 146.362 139.364 128.366 125.167 107.772Z" fill="#65B345"/>
<path d="M120.768 81.3787C109.371 60.7841 103.373 44.7883 103.373 44.7883C103.373 44.7883 97.3746 60.7841 85.9776 81.3787C74.5805 101.973 56.1853 119.969 56.1853 119.969C56.1853 119.969 61.1841 125.367 103.373 125.367C145.362 125.367 150.561 119.969 150.561 119.969C150.561 119.969 132.365 101.973 120.768 81.3787Z" fill="#81BA41"/>
<path d="M76.58 70.9815C76.58 70.9815 88.7769 75.9802 103.373 75.9802C117.769 75.9802 130.166 70.9815 130.166 70.9815" fill="#2DA34A"/>
<path d="M116.969 56.9851C108.172 36.3905 103.373 20.3947 103.373 20.3947C103.373 20.3947 98.7741 36.3905 89.7765 56.9851C80.9788 77.5798 66.7825 95.575 66.7825 95.575C66.7825 95.575 70.5816 100.974 103.373 100.974C135.965 100.974 139.963 95.575 139.963 95.575C139.963 95.575 125.767 77.5798 116.969 56.9851Z" fill="#8BC53F"/>
<path d="M113.37 34.591C106.772 15.196 103.373 1.52588e-05 103.373 1.52588e-05C103.373 1.52588e-05 99.9739 15.196 93.3756 34.591C86.7774 53.9859 76.3801 71.1814 76.3801 71.1814C76.3801 71.1814 79.1793 76.1801 103.173 76.1801C127.167 76.1801 129.966 71.1814 129.966 71.1814C129.966 71.1814 119.769 53.9859 113.37 34.591Z" fill="#A5CD39"/>
</svg>
