<svg width="98" height="150" viewBox="0 0 98 150" fill="none" xmlns="http://www.w3.org/2000/svg">
<path d="M0.985641 142.52C5.78439 141.321 16.7815 138.721 23.9796 131.123C31.1778 123.725 37.976 115.327 37.976 91.3336C37.976 67.3398 37.976 0.957214 37.976 0.957214H57.5708C57.5708 0.957214 57.7708 76.3375 58.3707 89.934C58.9705 103.53 60.1702 117.327 67.5682 125.325C74.9663 133.323 77.3657 135.722 86.3634 139.121C95.361 142.52 97.5604 143.32 97.5604 143.32C97.5604 143.32 87.363 143.92 80.7647 142.52C74.3664 141.121 67.1683 138.121 67.1683 138.121C67.1683 138.121 64.569 138.121 65.9687 139.321C67.3683 140.521 66.9684 141.52 72.167 143.52C77.3656 145.519 83.3642 147.719 83.3642 147.719C83.3642 147.719 72.9668 148.519 64.9689 146.319C57.171 144.12 52.3722 141.121 51.5724 141.92C50.7726 142.72 50.1727 149.119 47.7734 149.119C45.374 149.119 44.5742 142.12 43.5745 141.92C42.5748 141.72 36.9762 145.719 28.9783 146.719C20.9804 147.919 13.9822 147.919 13.9822 147.919C13.9822 147.919 19.3808 146.319 22.9799 144.12C26.379 141.92 26.179 140.121 26.179 140.121C26.179 140.121 23.7797 141.52 16.9815 142.52C10.7831 143.32 0.985641 142.52 0.985641 142.52Z" fill="#896737"/>
<path d="M38.1759 0.957214H57.7707C57.7707 0.957214 57.9707 76.3375 58.5706 89.934C59.1704 103.53 60.3701 117.327 67.7681 125.325C75.1662 133.323 77.5656 135.722 86.5633 139.121C95.5609 142.52 97.7603 143.32 97.7603 143.32C97.7603 143.32 87.563 143.92 80.9648 142.52C74.5664 141.121 67.3683 138.121 67.3683 138.121C67.3683 138.121 64.7689 138.121 66.1686 139.321C67.5682 140.521 67.1684 141.52 72.367 143.52C77.5657 145.519 83.5641 147.719 83.5641 147.719C83.5641 147.719 73.1667 148.519 65.1688 146.319C62.5695 145.519 60.1702 144.72 58.3707 143.92C54.5717 142.52 46.7737 138.521 46.3738 107.729C46.3738 100.531 47.1735 103.33 46.1738 97.9319C45.1741 92.3334 37.976 76.7374 37.976 76.7374V0.957214H38.1759Z" fill="#77582C"/>
</svg>
